<svg xmlns="http://www.w3.org/2000/svg" height="512" viewBox="0 -19 480 479" width="512"><path d="M444 192.5h-36v-104c0-2.121-.84-4.156-2.344-5.656A7.985 7.985 0 0 0 400 80.5h-8v-72c0-2.121-.84-4.156-2.344-5.656A7.985 7.985 0 0 0 384 .5H272c-26.496.027-47.973 21.504-48 48v24c0 2.121.84 4.156 2.344 5.656A7.985 7.985 0 0 0 232 80.5h80c2.121 0 4.156-.84 5.656-2.344A7.985 7.985 0 0 0 320 72.5v-24a47.745 47.745 0 0 0-12.324-32H376v64h-8c-2.121 0-4.156.84-5.656 2.344A7.985 7.985 0 0 0 360 88.5v104H36c-19.883 0-36 16.117-36 36s16.117 36 36 36h20v56c.043 39.746 32.254 71.957 72 72h4.902l-12.488 37.469a7.997 7.997 0 0 0 1.094 7.21A7.989 7.989 0 0 0 128 440.5h32c3.441 0 6.5-2.203 7.586-5.469l14.176-42.531h116.476l14.176 42.531A7.995 7.995 0 0 0 320 440.5h32a7.989 7.989 0 0 0 6.492-3.32 7.997 7.997 0 0 0 1.094-7.211L347.098 392.5H352c39.746-.043 71.957-32.254 72-72v-56h20c19.883 0 36-16.117 36-36s-16.117-36-36-36zm-140-144v16h-64v-16c0-17.672 14.328-32 32-32s32 14.328 32 32zm72 48h16v96h-16zm-221.766 328h-15.132l10.664-32h15.132zm186.664 0h-15.132l-10.664-32h15.132zM408 320.5c-.04 30.914-25.086 55.96-56 56H128c-30.914-.04-55.96-25.086-56-56v-56h336zm36-72H36c-11.047 0-20-8.953-20-20s8.953-20 20-20h408c11.047 0 20 8.953 20 20s-8.953 20-20 20zm0 0" fill="#91DC5A"/><path d="M160 168.5c13.254 0 24-10.746 24-24s-10.746-24-24-24-24 10.746-24 24c.016 13.25 10.75 23.984 24 24zm0-32a8 8 0 1 1-8 8 8.005 8.005 0 0 1 8-8zm-40-88c-17.672 0-32 14.328-32 32s14.328 32 32 32 32-14.328 32-32c-.016-17.664-14.336-31.984-32-32zm0 48c-8.836 0-16-7.164-16-16s7.164-16 16-16 16 7.164 16 16c-.012 8.832-7.168 15.988-16 16zm128 24v-16a8 8 0 0 0-16 0v16a8 8 0 0 0 16 0zm24 24v-16a8 8 0 0 0-16 0v16a8 8 0 0 0 16 0zm32-32v-16a8 8 0 0 0-16 0v16a8 8 0 0 0 16 0zm24 24v-16a8 8 0 0 0-16 0v16a8 8 0 0 0 16 0zm-200 216a8 8 0 0 0 0-16c-8.672 0-16-10.992-16-24a8 8 0 0 0-16 0c0 22.055 14.352 40 32 40zm0 0" fill="#91DC5A"/></svg>