<svg xmlns="http://www.w3.org/2000/svg" height="512" viewBox="0 0 368 368" width="512"><path d="M312 64c-3.016 0-6.207.543-9.441 1.441C303.457 62.207 304 59.016 304 56c0-15.023-5.84-29.098-16.39-39.55C277.097 5.84 263.022 0 248 0c-30.879 0-56 25.121-56 56 0 13.594 6.352 24.121 12.879 31.8L87.8 204.88C80.12 198.352 69.594 192 56 192c-30.879 0-56 25.121-56 56 0 15.023 5.84 29.098 16.39 39.55C26.903 298.16 40.978 304 56 304c3.016 0 6.207-.543 9.441-1.441C64.543 305.793 64 308.984 64 312c0 15.023 5.84 29.098 16.39 39.55C90.903 362.16 104.978 368 120 368c30.879 0 56-25.121 56-56 0-13.594-6.352-24.121-12.879-31.8L280.2 163.12c7.68 6.528 18.206 12.88 31.8 12.88 30.879 0 56-25.121 56-56 0-15.023-5.84-29.098-16.39-39.55C341.097 69.84 327.022 64 312 64zm0 96c-8.977 0-16.848-4.078-26.32-13.633a7.972 7.972 0 0 0-5.664-2.367c-1.77.137-4.168.84-5.672 2.344l-128 128c-1.504 1.504-2.344 3.543-2.344 5.672s.855 4.168 2.367 5.664C155.922 295.152 160 303.023 160 312c0 22.055-17.945 40-40 40-10.727 0-20.762-4.16-28.29-11.762C84.16 332.762 80 322.727 80 312c0-5.734 4.855-15.703 7.191-20.496a8.002 8.002 0 1 0-10.695-10.695C71.703 283.145 61.734 288 56 288c-10.727 0-20.762-4.16-28.29-11.762C20.16 268.762 16 258.727 16 248c0-22.055 17.945-40 40-40 8.977 0 16.848 4.078 26.32 13.633A7.972 7.972 0 0 0 87.984 224c1.864-.031 4.168-.84 5.672-2.344l128-128c1.504-1.504 2.344-3.543 2.344-5.672s-.855-4.168-2.367-5.664C212.078 72.848 208 64.977 208 56c0-22.055 17.945-40 40-40 10.727 0 20.762 4.16 28.29 11.762C283.84 35.238 288 45.273 288 56c0 5.734-4.855 15.703-7.191 20.496a8 8 0 1 0 10.695 10.695C296.297 84.855 306.266 80 312 80c10.727 0 20.762 4.16 28.29 11.762C347.84 99.238 352 109.273 352 120c0 22.055-17.945 40-40 40zm0 0" fill="#60c0c3"/><path d="M242.344 114.344l-128 128a7.99 7.99 0 0 0 0 11.312c1.558 1.559 3.61 2.344 5.656 2.344s4.098-.785 5.656-2.344l128-128c3.13-3.129 3.13-8.183 0-11.312s-8.183-3.13-11.312 0zm0 0" fill="#60c0c3"/></svg>