<svg xmlns="http://www.w3.org/2000/svg" width="512" height="512"><path d="M512 130.82L381.785.607 316.632 65.76l-12.435-12.435-31.493 31.492a38.17 38.17 0 0 0-11.094 29.462c3.16 48.834-13.742 97.757-46.341 134.191L4.751 480.769c-6.567 7.246-6.295 18.339.621 25.253a18.268 18.268 0 0 0 12.954 5.371c4.394 0 8.797-1.577 12.298-4.75l232.195-210.427c36.512-32.669 85.493-49.577 134.379-46.361a38.162 38.162 0 0 0 29.473-11.093l31.482-31.483-11.306-11.306L512 130.82zM381.785 22.189L490.417 130.82l-53.956 53.956-13.094-13.094 16.187-16.187-10.791-10.792-16.188 16.187-13.091-13.092 23.381-23.381-10.791-10.792-23.381 23.381-13.093-13.093 16.186-16.186-10.791-10.792-16.187 16.187-13.093-13.093 23.381-23.381-10.793-10.793-23.382 23.381-13.093-13.093 53.957-53.954zm34.096 205.781a22.908 22.908 0 0 1-17.685 6.656c-52.958-3.473-106.004 14.832-145.589 50.251L20.377 495.335a3.055 3.055 0 0 1-4.214-.105 3.052 3.052 0 0 1-.103-4.213L226.613 258.68c35.345-39.501 53.652-92.492 50.228-145.408a22.891 22.891 0 0 1 6.657-17.664L304.2 74.907l132.373 132.372-20.692 20.691z" fill="#60c0c3"/><path fill="#60c0c3" d="M439.56 133.914l10.79-10.79 10.792 10.79-10.791 10.791zm-16.716-31.066l10.79-10.79 10.79 10.79-10.79 10.79zM391.79 86.149l10.791-10.791 10.791 10.79-10.79 10.792zm-16.677-31.086l10.791-10.791 10.791 10.79-10.79 10.792z"/></svg>