<svg xmlns="http://www.w3.org/2000/svg" viewBox="0 0 496 496" width="512" height="512"><path fill="#60c0c3" d="M24 440h16v16H24zM8 456h16v16H8zm16 16h16v16H24zm16-16h16v16H40zM456 96h-72c-22.056 0-40 17.944-40 40v8h24v72h-24v8c0 22.056 17.944 40 40 40h64v193.888L467.056 496H496V136c0-22.056-17.944-40-40-40zm24 384h-3.056L464 454.112V248h-80c-10.432 0-19.328-6.688-22.632-16H440c13.232 0 24-10.768 24-24v-56c0-13.232-10.768-24-24-24h-78.632c3.304-9.312 12.2-16 22.632-16h72c13.232 0 24 10.768 24 24v344zm-96-264v-72h56c4.408 0 8 3.592 8 8v56c0 4.408-3.592 8-8 8h-56zM236.856 64c-16.6 0-33.152 5.248-47.864 15.168C180.312 85.032 170.552 88 160 88s-20.312-2.968-28.992-8.832C116.296 69.248 99.744 64 83.144 64 37.296 64 0 101.296 0 147.144c0 51.912 15.616 101.912 45.168 144.6 18.192 26.28 31.352 55.336 39.112 86.344l8.56 34.232A25.922 25.922 0 0 0 118.032 432c14.32 0 25.968-11.648 25.968-25.968V304c0-8.824 7.176-16 16-16s16 7.176 16 16v102.032c0 14.32 11.648 25.968 25.968 25.968a25.924 25.924 0 0 0 25.192-19.672l8.56-34.232c7.752-31.016 20.912-60.064 39.112-86.344C304.384 249.056 320 199.056 320 147.144 320 101.296 282.704 64 236.856 64zm24.816 218.64c-19.296 27.872-33.248 58.68-41.48 91.576l-8.56 34.232a9.937 9.937 0 0 1-9.664 7.552c-5.496 0-9.968-4.472-9.968-9.968V304c0-17.648-14.352-32-32-32s-32 14.352-32 32v102.032c0 5.496-4.472 9.968-9.968 9.968a9.953 9.953 0 0 1-9.672-7.552l-8.56-34.232c-8.224-32.888-22.176-63.704-41.48-91.576C30.64 242.64 16 195.784 16 147.144 16 110.12 46.12 80 83.144 80c13.4 0 26.856 4.304 38.92 12.44C133.44 100.112 146.2 104 160 104s26.56-3.888 37.944-11.56C210 84.304 223.456 80 236.856 80 273.88 80 304 110.12 304 147.144c0 48.64-14.64 95.496-42.328 135.496z"/><path d="M206.888 105.696C193.024 115.056 176.816 120 160 120s-33.024-4.944-46.888-14.296l-8.944 13.264C120.68 130.112 139.992 136 160 136c20.016 0 39.328-5.888 55.84-17.04l-8.952-13.264zM312 312h16v16h-16zm-16 16h16v16h-16zm16 16h16v16h-16zm16-16h16v16h-16zM344 0h16v16h-16zm-16 16h16v16h-16zm16 16h16v16h-16zm16-16h16v16h-16z" fill="#60c0c3"/></svg>