<svg xmlns="http://www.w3.org/2000/svg" viewBox="0 0 421.121 421.121" width="512" height="512"><g fill="#60c0c3"><path d="M228.503 192.45l-.007-.007-.008-.007-.001-.001a10.463 10.463 0 0 0-7.441-3.078 10.483 10.483 0 0 0-7.459 3.094c-4.092 4.101-4.094 10.776.017 14.901a10.467 10.467 0 0 0 7.442 3.078c2.818 0 5.468-1.099 7.446-3.082a10.47 10.47 0 0 0 3.09-7.458 10.467 10.467 0 0 0-3.078-7.439l-.001-.001z"/><path d="M417.632 139.564l-33.366-33.366 11.138-11.137c11.011-11.011 11.011-28.926 0-39.937l-28.83-28.83c-11.013-11.01-28.926-11.009-39.936 0L315.5 37.433 280.996 2.929c-3.905-3.905-10.235-3.905-14.143 0-3.905 3.905-3.905 10.237 0 14.142l34.504 34.504-16.204 16.205-34.504-34.504c-3.905-3.905-10.235-3.905-14.143 0-3.905 3.905-3.905 10.237 0 14.142l34.504 34.504-16.204 16.205-34.504-34.504c-3.905-3.905-10.237-3.905-14.142 0-3.905 3.905-3.906 10.237 0 14.142l34.504 34.504-16.204 16.205-34.504-34.504c-3.905-3.905-10.236-3.905-14.143 0-3.905 3.905-3.905 10.237 0 14.142l34.504 34.504-16.204 16.204-34.504-34.504c-3.905-3.905-10.237-3.905-14.142 0-3.905 3.905-3.905 10.237 0 14.142l34.504 34.504-11.137 11.137c-5.334 5.334-8.271 12.425-8.271 19.968 0 2.006.208 3.98.613 5.898L11.032 360.109C4.28 366.861.561 375.839.561 385.388s3.719 18.527 10.471 25.279c6.969 6.969 16.124 10.454 25.279 10.454s18.31-3.485 25.279-10.454l150.159-150.159c9.039 1.911 18.843-.636 25.852-7.644l11.137-11.137 33.365 33.366c3.905 3.905 10.235 3.906 14.143 0 3.905-3.905 3.905-10.237 0-14.142l-33.365-33.366 16.204-16.205 33.365 33.366c3.906 3.905 10.236 3.906 14.143 0 3.905-3.905 3.905-10.237 0-14.142l-33.365-33.366 16.204-16.204 33.365 33.366c3.906 3.905 10.236 3.905 14.142 0 3.905-3.905 3.905-10.237 0-14.142l-33.366-33.366 16.205-16.204 33.365 33.366c3.906 3.905 10.238 3.906 14.143 0 3.905-3.905 3.905-10.237 0-14.142l-33.366-33.366 16.205-16.205 33.365 33.366c3.906 3.905 10.236 3.906 14.143 0 3.904-3.906 3.904-10.237-.001-14.143zM47.448 396.525c-6.142 6.141-16.134 6.141-22.274 0a15.646 15.646 0 0 1-4.613-11.137c0-4.207 1.638-8.162 4.613-11.137l146.938-146.938 22.274 22.274L47.448 396.525zM363.071 99.11l-.018.018-.018.018-91 90.999-.022.022-.022.023-30.297 30.297-.027.027-.026.027-18.182 18.181a8.185 8.185 0 0 1-5.826 2.413 8.268 8.268 0 0 1-2.407-.355 9.89 9.89 0 0 0-2.698-1.415 8.542 8.542 0 0 1-.721-.643l-28.83-28.83a8.561 8.561 0 0 1-.643-.721 9.947 9.947 0 0 0-1.415-2.698 8.268 8.268 0 0 1-.355-2.407c0-2.201.857-4.27 2.414-5.826L340.779 40.438c3.213-3.212 8.44-3.213 11.651 0l28.83 28.829c3.213 3.213 3.213 8.44 0 11.653l-18.189 18.19z"/><path d="M312.086 98.318a10.486 10.486 0 0 0-7.463 3.098c-4.09 4.104-4.088 10.779.021 14.897a10.467 10.467 0 0 0 7.442 3.078c2.818 0 5.468-1.099 7.441-3.078a10.466 10.466 0 0 0 3.095-7.456 10.464 10.464 0 0 0-3.078-7.445 10.463 10.463 0 0 0-7.458-3.094zm-53.237 63.786l-.007-.007-.008-.007-.001-.001a10.463 10.463 0 0 0-7.441-3.078 10.483 10.483 0 0 0-7.459 3.094c-4.095 4.104-4.095 10.781.017 14.901a10.467 10.467 0 0 0 7.442 3.078c2.818 0 5.468-1.099 7.441-3.078a10.465 10.465 0 0 0 3.095-7.459 10.465 10.465 0 0 0-3.079-7.443zm83.595-94.133h-.013a10.475 10.475 0 0 0-7.458 3.095c-4.094 4.104-4.094 10.78.017 14.901a10.467 10.467 0 0 0 7.442 3.078c2.818 0 5.468-1.099 7.441-3.078a10.464 10.464 0 0 0 3.095-7.458c0-2.809-1.091-5.449-3.074-7.438a10.46 10.46 0 0 0-7.45-3.1zm-53.248 63.786a.023.023 0 0 1-.007-.007l-.007-.007-.002-.001a10.463 10.463 0 0 0-7.441-3.078 10.483 10.483 0 0 0-7.459 3.094c-4.095 4.104-4.095 10.781.017 14.901a10.467 10.467 0 0 0 7.442 3.078c2.818 0 5.468-1.099 7.441-3.078a10.465 10.465 0 0 0 3.095-7.459c0-2.811-1.093-5.453-3.078-7.442l-.001-.001z"/></g></svg>