<svg xmlns="http://www.w3.org/2000/svg" viewBox="0 0 308.385 308.385" width="512" height="512"><g fill="#60c0c3"><path d="M249.697 203.704h-23.499c-.777-23.756-13.893-37.255-25.422-44.545-13.359-8.448-27.175-10.247-27.757-10.319a7.495 7.495 0 0 0-7.642 4.102 7.498 7.498 0 0 0 1.337 8.568c7.02 7.222 7.451 13.325 5.686 16.357-.829 1.424-2.464 2.749-4.579 2.2-2.301-.599-4.669-1.701-7.412-2.979-8.426-3.928-19.794-9.219-42.629-6.637V120.68c0-.071-.001-.143-.003-.214-.811-28.383-19.246-50.934-25.837-58.114v-32.56c0-12.715-10.344-23.059-23.058-23.059H51.438c-12.715 0-23.06 10.344-23.06 23.059v32.56c-6.591 7.181-25.026 29.731-25.837 58.114a7.635 7.635 0 0 0-.003.214v147.638c0 12.119 9.097 21.978 20.279 21.978h50.667c10.093 11.65 18.791 16.687 19.578 17.129a7.5 7.5 0 0 0 3.67.959H182.3a7.5 7.5 0 0 0 3.67-.959c1.046-.587 25.785-14.81 40.937-52.957.47-1.183 3.62-2.798 6.398-4.223 8.936-4.582 23.891-12.25 23.891-39.043a7.498 7.498 0 0 0-7.499-7.498zm-95.621-13.019c3.121 1.454 6.348 2.957 9.971 3.899 8.304 2.158 16.871-1.527 21.319-9.174 2.465-4.237 3.714-9.974 2.383-16.415 10.598 5.226 22.487 15.384 23.421 34.708H83.67c5.467-6.947 15.354-15.407 32.024-17.858 21.277-3.129 30.365 1.105 38.382 4.84zM43.379 29.793c0-4.443 3.616-8.059 8.06-8.059h17.444c4.443 0 8.058 3.615 8.058 8.059v28.072H43.379V29.793zM22.818 275.297c-2.862 0-5.279-3.195-5.279-6.978V120.792c.692-22.7 16.021-41.75 21.573-47.927h42.096c5.552 6.177 20.881 25.226 21.573 47.927v52.622c-22.066 6.755-32.683 22.22-36.88 30.289H49.3a7.497 7.497 0 0 0-7.454 8.328c3.097 27.871 11.515 48.477 20.657 63.266H22.818zm203.644-38.398c-5.13 2.631-10.945 5.612-13.495 12.033-11.036 27.784-27.796 40.957-32.867 44.453H98.906c-6.595-4.49-33.055-25.313-41.021-74.682h183.769c-1.837 11.348-8.109 14.564-15.192 18.196z"/><path d="M305.646 273.935l-38.209-152.15c11.907-14.67 14.879-40.86 6.844-64.573L269.78 43.93a7.501 7.501 0 0 0-9.511-4.696l-1.018.345-11.82-34.507a7.5 7.5 0 0 0-14.19 4.861l11.803 34.459-6.067 2.056-11.797-34.44a7.5 7.5 0 0 0-14.19 4.861l11.78 34.393-6.067 2.056-11.773-34.373a7.5 7.5 0 1 0-14.19 4.861l11.757 34.325-6.067 2.056-11.75-34.308a7.5 7.5 0 0 0-14.19 4.861l11.745 34.289a7.5 7.5 0 0 0-4.082 9.267l4.5 13.283c8.436 24.895 28.471 41.897 44.763 46.77l62.066 144.375a7.502 7.502 0 0 0 6.894 4.54c.604 0 8.85-.491 7.27-9.329zM198.86 82.766l-2.094-6.18 61.215-20.739 2.093 6.179c7.468 22.039 2.772 43.886-6.081 52.273a7.495 7.495 0 0 0-1.896 7.983l16.212 64.559-26.283-61.138a7.494 7.494 0 0 0-5.85-5.123c-12.53-2.199-30.359-17.281-37.316-37.814z"/></g></svg>