<svg xmlns="http://www.w3.org/2000/svg" viewBox="0 0 480.948 480.948" width="512" height="512"><path d="M174.442 450.796c-16.996-21.267-18.603-50.984-4-73.96l-13.512-8.576c-17.688 27.869-16.375 63.755 3.304 90.256l-.04 21.28h16v-24a7.997 7.997 0 0 0-1.752-5zm197.616-82.536l-13.512 8.576c14.592 22.985 12.969 52.701-4.04 73.96a7.999 7.999 0 0 0-1.752 5v24h16v-21.28c19.678-26.501 20.992-62.388 3.304-90.256z" fill="#FFF"/><path d="M375.874 290.308l-57.512-7.664a16.048 16.048 0 0 1-13.888-15.856v-21.816a80.468 80.468 0 0 0 28.568-28.176c10.463 28.206 37.348 46.944 67.432 47a8 8 0 0 0 8-8v-112c.003-31.392-20.351-59.161-50.288-68.608-11.506-51.756-62.79-84.385-114.545-72.88-43.838 9.745-75.062 48.58-75.167 93.487v20.448c-15.274 8.776-20.542 28.272-11.766 43.546a31.898 31.898 0 0 0 27.766 16.006 80.002 80.002 0 0 0 40 69.176v21.816a16.048 16.048 0 0 1-13.888 15.856l-24.64 3.288-1.16-.336-.144.504-31.568 4.208 2.112 15.864 24.656-3.288-11.056 38.712a8 8 0 0 0 4.712 9.6l33 13.192-5.6 16.848a8 8 0 0 0 4.44 9.88l51.136 21.952v66.728h16v-66.728l51.152-21.92a8 8 0 0 0 4.44-9.88l-5.808-17.424 25.792-12.848a8 8 0 0 0 4.344-8.296l-5.728-40.104 27.096 3.616c19.83 2.697 34.639 19.596 34.712 39.608v133.976h16V345.82c-.079-28.039-20.818-51.728-48.6-55.512zm16.6-146.512v103.432c-27.535-4.013-47.965-27.606-48-55.432v-8h-.408c.269-2.658.406-5.328.408-8 17.616.061 31.945-14.17 32.006-31.786a31.895 31.895 0 0 0-16.006-27.766V95.796c0-.88-.112-1.728-.128-2.6a55.944 55.944 0 0 1 32.128 50.6zm-32 0c0 8.837-7.163 16-16 16v-32c8.836 0 16 7.163 16 16zm-120-124.312c42.148-13.255 87.06 10.167 100.315 52.315a79.989 79.989 0 0 1 3.685 23.997v16h-2.312c-7.459-19.279-26-31.992-46.672-32h-55.016V19.484zm55.016 76.312c15.436-.003 28.957 10.346 32.984 25.248v38.752h-128v-38.752c4.027-14.902 17.548-25.251 32.984-25.248h62.032zm-111.016 64c-8.837 0-16-7.163-16-16s7.163-16 16-16v32zm2.312-48h-2.312v-16a80.002 80.002 0 0 1 40-69.176v54.016a50.039 50.039 0 0 0-37.688 31.16zm13.688 64h128c-.04 35.33-28.67 63.96-64 64-35.33-.04-63.961-28.671-64-64zm101.424 116.888l-17.24 43.112H244.29l-17.24-43.112a32.002 32.002 0 0 0 13.424-25.896v-14.68a79.94 79.94 0 0 0 48 0v14.68a32 32 0 0 0 13.424 25.896zm-83.504 86.656l5.672-17.016a8 8 0 0 0-4.616-9.96l-33.304-13.312 10.992-38.456 15.032-2.008 37.704 94.248-31.48-13.496zm47.064 4.456h-1.968l-12.8-32h27.568l-12.8 32zm43.44-31.16a8 8 0 0 0-4 9.688l5.672 17.016-31.496 13.496 37.704-94.264 13.408 1.792 5.552 38.856-26.84 13.416z" fill="#FFF"/><circle cx="232.474" cy="135.796" r="16" fill="#FFF"/><circle cx="296.474" cy="135.796" r="16" fill="#FFF"/><path fill="#FFF" d="M288.474 423.796h16v16h-16zm-167.28-119.88a24.06 24.06 0 0 0-2.4-.12h-38.32c-13.255 0-24 10.745-24 24v152h16v-152a8 8 0 0 1 8-8h38.32a8 8 0 0 1 8 8.8l-4.8 48a8 8 0 0 1-7.96 7.2h-25.56v16h20.28l11.8 81.152 15.84-2.304-11.824-81.248a23.92 23.92 0 0 0 13.304-19.2l4.8-48c1.325-13.189-8.291-24.955-21.48-26.28zm-3.064-53.776l-13.656-13.656v-60.688a8 8 0 0 0-2.344-5.656l-11.872-11.872a6.096 6.096 0 0 1 2.4-10.096l14.4-4.8-5.056-15.2-14.36 4.8c-11.578 3.855-17.839 16.367-13.984 27.945a22.1 22.1 0 0 0 5.344 8.647l9.472 9.544v57.376L74.818 250.14a8 8 0 0 0-2.344 5.656v32h16v-28.688l8-8 8 8v28.688h16v-32a8.003 8.003 0 0 0-2.344-5.656z"/></svg>