<svg xmlns="http://www.w3.org/2000/svg" width="512" height="512"><path d="M379.847 420.942c-3.094-4.576-9.312-5.777-13.885-2.685l-.263.178c-4.596 3.063-5.837 9.272-2.773 13.867a9.989 9.989 0 0 0 8.329 4.454 9.95 9.95 0 0 0 5.538-1.681l.368-.248c4.576-3.093 5.778-9.31 2.686-13.885zM149.037 79.634c-3.092-4.576-9.31-5.778-13.885-2.686l-.351.237c-4.563 3.112-5.737 9.334-2.625 13.896a9.99 9.99 0 0 0 8.269 4.366 9.949 9.949 0 0 0 5.627-1.74l.28-.188c4.576-3.093 5.778-9.31 2.685-13.885z" fill="#FFF"/><path d="M512 256c0-68.38-26.629-132.667-74.98-181.02C388.667 26.629 324.38 0 256 0c-54.254 0-106.161 16.815-150.108 48.627-4.474 3.238-5.475 9.49-2.237 13.964 3.238 4.475 9.491 5.475 13.964 2.237C158.133 35.501 205.984 20 256 20c130.131 0 236 105.869 236 236 0 59.693-22.024 115.993-62.209 159.648l-14.165-14.164a215.87 215.87 0 0 0 50.473-95.37c13.393-56.12 4.128-114.097-26.086-163.249C409.8 93.714 362.254 59.27 306.134 45.878c-48.839-11.653-100.542-5.854-145.584 16.334-4.955 2.44-6.992 8.436-4.552 13.39 2.441 4.954 8.435 6.992 13.39 4.552 40.871-20.133 87.787-25.395 132.104-14.822 105.122 25.085 170.238 131.017 145.154 236.14-7.642 32.023-23.207 61.491-45.194 85.837L298.895 284.752l56.695-54.023c3.998-3.81 4.151-10.14.342-14.138l-8.118-8.52 22.345-21.291 15.091 15.837a9.97 9.97 0 0 0 7.241 3.102 9.962 9.962 0 0 0 6.896-2.761c3.998-3.81 4.151-10.14.341-14.138l-68.646-72.041c-3.809-3.998-10.14-4.151-14.138-.341s-4.151 10.14-.341 14.138l15.332 16.09-22.345 21.292-8.117-8.519c-3.809-3.998-10.14-4.151-14.138-.341l-58.424 55.671L51.638 37.497c-3.905-3.904-10.236-3.904-14.142 0-3.905 3.905-3.905 10.237 0 14.143l30.562 30.562c-20.593 22.244-36.92 47.704-48.571 75.832C6.556 189.25 0 222.21 0 256c0 68.38 26.628 132.668 74.98 181.019C123.332 485.371 187.62 512 256 512c54.253 0 106.159-16.814 150.107-48.627 4.475-3.238 5.476-9.49 2.237-13.964-3.238-4.474-9.491-5.475-13.964-2.237C353.866 476.499 306.015 492 256 492 125.869 492 20 386.13 20 256c0-59.692 22.024-115.992 62.208-159.648l14.158 14.158a215.864 215.864 0 0 0-50.467 95.365c-13.392 56.12-4.127 114.096 26.086 163.248s77.759 83.597 133.879 96.987a215.536 215.536 0 0 0 50.035 5.877c32.925 0 65.701-7.508 95.549-22.211 4.954-2.44 6.992-8.435 4.552-13.39-2.44-4.953-8.434-6.993-13.39-4.552-40.873 20.133-87.789 25.397-132.104 14.822-50.923-12.151-94.067-43.406-121.483-88.008-27.416-44.601-35.822-97.208-23.67-148.132 7.64-32.02 23.203-61.487 45.188-85.834L214.428 228.57l-50.059 47.699a9.997 9.997 0 0 0-3.021 5.968l-7.512 58.591-21.036 20.045c-3.998 3.81-4.151 10.14-.341 14.138a9.971 9.971 0 0 0 7.241 3.102 9.966 9.966 0 0 0 6.897-2.761l21.036-20.045 58.885-4.678a10 10 0 0 0 6.106-2.729l51.786-49.346 175.95 175.95c1.953 1.952 4.512 2.929 7.071 2.929s5.118-.977 7.071-2.929c3.905-3.905 3.905-10.237 0-14.143l-30.563-30.563c20.594-22.244 36.92-47.703 48.571-75.832C505.443 322.75 512 289.79 512 256zm-166.269-94.854l10.63 11.155-22.345 21.292-10.63-11.156 22.345-21.291zM221.397 330.973l-31.833 2.528 10.112-10.111c3.905-3.905 3.905-10.237 0-14.143-3.905-3.904-10.236-3.904-14.142 0l-8.586 8.586 3.787-29.532 47.839-45.584 41.69 41.69-48.867 46.566zm21.661-102.057l50.835-48.44 40.661 42.673-49.805 47.458-41.691-41.691z" fill="#FFF"/><path d="M220.579 288.345c-3.905-3.904-10.236-3.904-14.142 0l-.336.336c-3.905 3.905-3.905 10.237 0 14.143 1.953 1.952 4.512 2.929 7.071 2.929s5.118-.977 7.071-2.929l.336-.336c3.905-3.905 3.905-10.238 0-14.143z" fill="#FFF"/></svg>