<svg xmlns="http://www.w3.org/2000/svg" viewBox="0 0 491.599 491.599" width="512" height="512"><g fill="#60c0c3"><path d="M314.73 143.641c-4.439 4.438-6.883 10.34-6.883 16.617s2.445 12.179 6.883 16.617c4.581 4.582 10.599 6.872 16.617 6.872 6.018 0 12.036-2.291 16.617-6.872 4.438-4.438 6.883-10.34 6.883-16.617s-2.445-12.179-6.883-16.618c-9.163-9.161-24.072-9.161-33.234.001zm22.627 22.627c-3.314 3.315-8.707 3.314-12.021 0-1.605-1.605-2.49-3.739-2.49-6.01s.884-4.405 2.49-6.01a8.473 8.473 0 0 1 6.011-2.486c2.176 0 4.354.829 6.01 2.485 1.605 1.605 2.49 3.74 2.49 6.011s-.884 4.405-2.49 6.01z"/><path d="M488.35 23.983a7.5 7.5 0 0 0-9.571.864l-83.619 83.619a7.497 7.497 0 0 0-2.187 5.681c.241 4.773-1.438 9.213-4.726 12.501-6.43 6.428-16.895 6.431-23.319.014-6.425-6.434-6.422-16.897.007-23.326 3.288-3.289 7.73-4.973 12.501-4.726a7.491 7.491 0 0 0 5.681-2.188l83.619-83.619A7.5 7.5 0 0 0 458.341.667c-1.799.814-44.552 20.272-87.578 49.18-40.849 27.446-67.428 53.59-79.475 78.097-31.914 2.268-91.003 11.593-149.999 47.593C74.961 216.011 27.947 278.036 1.552 359.889c-3.647 11.307-.691 23.553 7.715 31.959a31.555 31.555 0 0 0 22.241 9.212c13.305 0 25.701-8.505 30-21.833 22.139-68.654 61.367-119.806 116.594-152.034 43.44-25.35 87.231-33.566 117.329-35.889.725.85 1.473 1.679 2.262 2.472.015.016.028.033.044.048l.022.022.035.032a39.168 39.168 0 0 0 2.467 2.254c-4.38 56.588-32.023 183.67-187.909 233.94-8.145 2.627-14.484 8.281-18.186 15.315-.032.061-.067.121-.099.182-.127.245-.246.495-.366.743-.12.246-.243.491-.357.739l-.016.037c-2.759 6.051-3.527 12.796-2.145 19.425.064.307.151.607.224.911.066.272.127.543.2.815.122.457.258.907.4 1.356l.034.116c.012.037.027.073.039.11a31.295 31.295 0 0 0 7.648 12.532c5.99 5.991 13.989 9.246 22.253 9.246 2.146 0 4.313-.22 6.464-.668 20.526-4.276 74.023-19.304 127.334-66.369 23.417-20.672 43.513-44.777 59.732-71.644 13.396-22.19 24.172-46.369 32.214-72.153 10.806-33.395 14.606-62.504 15.9-80.578 65.748-32.398 124.756-161.353 127.288-166.942a7.499 7.499 0 0 0-2.563-9.262zM341 247.745a350.183 350.183 0 0 1-9.525 34.667c-6.558 18.918-15.494 39.011-27.66 59.119-38.521 63.668-97.982 108.827-176.73 134.221a16.454 16.454 0 0 1-16.749-4.046 16.262 16.262 0 0 1-4.018-6.591 16.6 16.6 0 0 1-.651-2.928c-.012-.094-.034-.188-.045-.282-.031-.265-.036-.531-.053-.797-.018-.286-.047-.572-.051-.857-.002-.131.011-.261.012-.392.005-.415.013-.829.049-1.241.003-.035.01-.069.014-.104a16.406 16.406 0 0 1 2.626-7.462 16.39 16.39 0 0 1 10.439-7.11c6.029-1.258 148.128-32.687 188.237-195.165.136-.55.201-1.1.213-1.643.421-1.692.824-3.368 1.208-5.028l32.961 4.709c-.109.3-.206.609-.277.93zM47.233 374.623c-2.793 8.659-12.11 13.429-20.774 10.635a16.267 16.267 0 0 1-6.585-4.016c-4.406-4.407-5.957-10.824-4.045-16.749C41.09 286.157 85.93 226.89 149.102 188.342c31.84-19.429 63.708-30.708 90.913-37.244l4.689 32.825c.023.161.057.317.09.475-66.062 16.41-156.377 62.51-197.561 190.225zm212.225-193.486l-4.746-33.224a323.505 323.505 0 0 1 30.853-4.443c-1.394 5.711-1.965 11.325-1.673 16.834.317 5.985 1.427 11.582 3.281 16.688a304.921 304.921 0 0 0-27.715 4.145zm94.027 7.208a7.502 7.502 0 0 0-4.549 6.487c-.535 9.694-1.764 22.487-4.404 37.346a7.556 7.556 0 0 0-.834-.171l-32.363-4.624c2.363-13.151 3.583-24.835 4.174-34.288a7.5 7.5 0 0 0-3.193-6.618c-1.603-1.119-2.862-2.152-3.959-3.248-5.767-5.773-8.959-13.753-9.487-23.718-1.445-27.321 26.255-60.902 80.107-97.112 14.989-10.079 30.119-19.06 43.403-26.454l-47.699 47.699c-7.669.458-14.941 3.671-20.354 9.084-12.273 12.272-12.28 32.25-.007 44.54 12.282 12.265 32.259 12.259 44.532-.014 5.414-5.413 8.627-12.685 9.084-20.354l47.599-47.599c-23.358 41.895-62.5 102.191-102.05 119.044z"/></g></svg>