<svg xmlns="http://www.w3.org/2000/svg" height="512" viewBox="0 0 750 750" width="512"><g stroke="#60c0c3" fill="#60c0c3"><path d="M637.5 71.063V0h-25v63.5a88.119 88.119 0 0 0-12.5-1h-25V0h-25v62.5h-37.5V0h-25v62.5H450V0h-25v62.5h-37.5V0h-25v62.5H325V0h-25v62.5h-37.5V0h-25v62.5H200V0h-25v62.5h-25c-4.188.04-8.36.367-12.5 1V0h-25v71.063A87.927 87.927 0 0 0 71.062 112.5H0v25h63.5a88.119 88.119 0 0 0-1 12.5v25H0v25h62.5v37.5H0v25h62.5V300H0v25h62.5v37.5H0v25h62.5V425H0v25h62.5v37.5H0v25h62.5V550H0v25h62.5v25c.04 4.188.367 8.36 1 12.5H0v25h71.063a87.927 87.927 0 0 0 41.437 41.438V750h25v-63.5c4.14.633 8.313.96 12.5 1h25V750h25v-62.5h37.5V750h25v-62.5H300V750h25v-62.5h37.5V750h25v-62.5H425V750h25v-62.5h37.5V750h25v-62.5H550V750h25v-62.5h25c4.188-.04 8.36-.367 12.5-1V750h25v-71.063a87.927 87.927 0 0 0 41.438-41.437H750v-25h-63.5c.633-4.14.96-8.313 1-12.5v-25H750v-25h-62.5v-37.5H750v-25h-62.5V450H750v-25h-62.5v-37.5H750v-25h-62.5V325H750v-25h-62.5v-37.5H750v-25h-62.5V200H750v-25h-62.5v-25a88.119 88.119 0 0 0-1-12.5H750v-25h-71.063A87.927 87.927 0 0 0 637.5 71.062zM662.5 600c-.043 34.5-28 62.457-62.5 62.5H150c-34.5-.043-62.457-28-62.5-62.5V150c.043-34.5 28-62.457 62.5-62.5h450c34.5.043 62.457 28 62.5 62.5zm0 0"/><path d="M587.5 125h-425c-20.707 0-37.5 16.793-37.5 37.5v425c0 20.707 16.793 37.5 37.5 37.5h425c20.707 0 37.5-16.793 37.5-37.5v-425c0-20.707-16.793-37.5-37.5-37.5zM600 587.5c0 6.906-5.594 12.5-12.5 12.5h-425c-6.906 0-12.5-5.594-12.5-12.5v-425c0-6.906 5.594-12.5 12.5-12.5h425c6.906 0 12.5 5.594 12.5 12.5zm0 0"/><path d="M550 175h25v25h-25zM175 550h25v25h-25zm0-350v37.5h25V200h37.5v-25H200c-13.809 0-25 11.191-25 25zm375 350h-37.5v25H575v-62.5h-25zm0 0"/></g></svg>