<svg xmlns="http://www.w3.org/2000/svg" viewBox="0 0 503.607 503.607" width="512" height="512"><g fill="#60c0c3"><path d="M343.711 68.318V8.393c0-5.036-3.357-8.393-8.393-8.393s-8.393 3.357-8.393 8.393v58.754h-16.787V8.393c0-5.036-3.357-8.393-8.393-8.393s-8.393 3.357-8.393 8.393v58.754h-16.787V8.393c0-5.036-3.357-8.393-8.393-8.393s-8.393 3.357-8.393 8.393v58.754H242.99V8.393c0-5.036-3.357-8.393-8.393-8.393s-8.393 3.357-8.393 8.393v58.754h-16.787V8.393c0-5.036-3.357-8.393-8.393-8.393s-8.393 3.357-8.393 8.393v58.754h-16.787V8.393c0-5.036-3.357-8.393-8.393-8.393s-8.393 3.357-8.393 8.393v60.324a15.029 15.029 0 0 0-8.393 13.538V243.41c0 19.305 5.036 36.931 15.108 53.718 7.554 10.911 10.911 23.502 10.072 34.413v94.846c0 37.771 27.698 70.505 63.79 76.38 4.197.839 7.554.839 11.751.839 17.626 0 35.252-5.875 49.521-19.305 16.787-14.269 26.859-35.252 26.859-57.075v-96.525c-.839-10.911 2.518-22.662 10.072-34.413 10.072-15.948 15.108-34.413 15.108-52.879V82.256c-.002-6.305-3.791-11.662-9.235-13.938zm-7.554 175.931c0 15.948-4.197 31.056-12.59 44.485-9.233 14.269-13.43 29.377-12.59 44.485v95.685c0 16.787-7.554 33.574-20.984 44.485-13.43 10.911-31.056 15.948-47.843 13.43-28.538-5.036-49.521-30.216-49.521-60.433V332.38c.839-14.269-3.357-30.216-12.59-44.485-8.393-13.43-12.59-28.538-12.59-44.485V84.774h168.708v159.475z"/><path d="M251.384 302.164c-23.502 0-41.967 18.466-41.967 41.967v83.934c0 23.502 18.466 41.967 41.967 41.967s41.967-18.466 41.967-41.967v-83.934c0-23.502-18.466-41.967-41.967-41.967zm0 16.787c14.269 0 25.18 11.751 25.18 25.18v33.574h-50.361v-33.574c0-14.269 10.912-25.18 25.181-25.18zm0 134.295c-14.269 0-25.18-10.911-25.18-25.18v-33.574h50.361v33.574c-.001 14.268-10.913 25.18-25.181 25.18zm0-218.23c27.698 0 50.361-22.662 50.361-50.361s-22.662-50.361-50.361-50.361-50.361 22.662-50.361 50.361 22.662 50.361 50.361 50.361zm0-83.934c18.466 0 33.574 15.108 33.574 33.574s-15.108 33.574-33.574 33.574-33.574-15.108-33.574-33.574 15.108-33.574 33.574-33.574z"/></g></svg>