<svg xmlns="http://www.w3.org/2000/svg" height="512" viewBox="-7 0 480 480.894" width="512"><path d="M229.07 26.008a8 8 0 0 0-9.777-1.2l-56.566 33.946c-.243.14-.38.406-.602.574a8.689 8.689 0 0 0-.938.625L2.79 218.352a8.004 8.004 0 0 0 0 11.312l248.906 248.887a7.992 7.992 0 0 0 11.309 0l158.402-158.399a7.33 7.33 0 0 0 .625-.945c.168-.223.43-.352.582-.598l33.946-56.554a8 8 0 0 0-1.2-9.774zm28.29 435.594L19.757 224 166.844 76.922 404.445 314.52zm156.796-160L179.758 67.199l42.398-25.457L439.613 259.2zm0 0" fill="#60c0c3"/><path d="M130.156 152c0 22.09 17.91 40 40 40 22.094 0 40-17.91 40-40s-17.906-40-40-40c-22.078.027-39.972 17.918-40 40zm40-24c13.258 0 24 10.746 24 24s-10.742 24-24 24c-13.254 0-24-10.746-24-24s10.746-24 24-24zm-16 120c-22.09 0-40 17.91-40 40s17.91 40 40 40c22.094 0 40-17.91 40-40-.023-22.082-17.918-39.973-40-40zm0 64c-13.254 0-24-10.746-24-24s10.746-24 24-24c13.258 0 24 10.746 24 24s-10.742 24-24 24zm176 40c22.094 0 40-17.91 40-40s-17.906-40-40-40c-22.09 0-40 17.91-40 40 .028 22.082 17.922 39.973 40 40zm0-64c13.258 0 24 10.746 24 24s-10.742 24-24 24c-13.254 0-24-10.746-24-24s10.746-24 24-24zm-256-88c-13.254 0-24 10.746-24 24s10.746 24 24 24c13.258 0 24-10.746 24-24s-10.742-24-24-24zm0 32a8 8 0 1 1 .001-16 8 8 0 0 1 0 16zm80-16c0-13.254-10.742-24-24-24-13.254 0-24 10.746-24 24s10.746 24 24 24c13.258 0 24-10.746 24-24zm-32 0a8 8 0 1 1 16.001 0 8 8 0 0 1-16 0zm128 48c17.676 0 32-14.328 32-32s-14.324-32-32-32c-17.672 0-32 14.328-32 32s14.328 32 32 32zm0-48c8.836 0 16 7.164 16 16s-7.164 16-16 16-16-7.164-16-16 7.164-16 16-16zm-40 8c0-13.254-10.742-24-24-24-13.254 0-24 10.746-24 24s10.746 24 24 24c13.258 0 24-10.746 24-24zm-32 0a8 8 0 1 1 16.001 0 8 8 0 0 1-16 0zm64 104c13.258 0 24-10.746 24-24s-10.742-24-24-24c-13.254 0-24 10.746-24 24s10.746 24 24 24zm0-32a8 8 0 1 1 0 16 8 8 0 0 1 0-16zm-32 40c-13.254 0-24 10.746-24 24s10.746 24 24 24c13.258 0 24-10.746 24-24s-10.742-24-24-24zm0 32a8 8 0 1 1 .001-16 8 8 0 0 1 0 16zm24 24c0 17.672 14.328 32 32 32 17.676 0 32-14.328 32-32s-14.324-32-32-32c-17.672 0-32 14.328-32 32zm48 0c0 8.836-7.164 16-16 16s-16-7.164-16-16 7.164-16 16-16 16 7.164 16 16zm160-344c13.258 0 24-10.746 24-24s-10.742-24-24-24c-13.254 0-24 10.746-24 24s10.746 24 24 24zm0-32a8 8 0 1 1 0 16 8 8 0 0 1 0-16zm-112 64c22.094 0 40-17.91 40-40s-17.906-40-40-40c-22.09 0-40 17.91-40 40 .028 22.082 17.922 39.973 40 40zm0-64c13.258 0 24 10.746 24 24s-10.742 24-24 24c-13.254 0-24-10.746-24-24s10.746-24 24-24zm80 48c-30.926 0-56 25.07-56 56s25.074 56 56 56c30.93 0 56-25.07 56-56-.035-30.914-25.086-55.965-56-56zm0 96c-22.09 0-40-17.91-40-40s17.91-40 40-40c22.094 0 40 17.91 40 40-.023 22.082-17.918 39.973-40 40zm0 0" fill="#60c0c3"/><path d="M410.156 88c-17.672 0-32 14.328-32 32a8 8 0 0 0 16 0c0-8.836 7.164-16 16-16a8 8 0 0 0 0-16zm0 0" fill="#60c0c3"/></svg>