<svg xmlns="http://www.w3.org/2000/svg" height="512" viewBox="0 0 480.133 480" width="512"><path d="M336.363 166.469L211.914 290.91a7.997 7.997 0 0 0-.004 11.313 8.002 8.002 0 0 0 11.317.007l124.449-124.457a8.007 8.007 0 0 0 2.27-7.824 7.992 7.992 0 0 0-5.762-5.758 7.993 7.993 0 0 0-7.82 2.278zM189.29 313.54l-11.321 11.327a8.002 8.002 0 1 0 11.32 11.313l11.313-11.313a8 8 0 0 0-11.313-11.312zm0 0" fill="#60c0c3"/><path d="M477.785 92.918L387.281 2.414a7.997 7.997 0 0 0-11.32 0L353.34 25.043c-3.125 3.125-3.125 8.191 0 11.312l16.965 16.97-45.254 45.257-11.32-11.312-11.305-11.305a8 8 0 0 0-11.313 11.305l5.657 5.664L98.777 290.91a8.003 8.003 0 0 0 0 11.32l17.602 17.598-25.36 32.61a7.995 7.995 0 0 0 .657 10.566l7.133 7.137c-.11.097-.262.129-.368.238l-96 96a8.002 8.002 0 0 0 3.532 13.496 8.001 8.001 0 0 0 7.78-2.184l96-96c.114-.101.145-.253.243-.367l7.133 7.137a8.005 8.005 0 0 0 10.57.656l32.606-25.36 17.601 17.598c1.5 1.504 3.535 2.348 5.66 2.348s4.16-.844 5.66-2.348L387.274 183.43l5.664 5.656a8 8 0 0 0 7.782 2.18 7.998 7.998 0 0 0 3.531-13.493l-11.32-11.304-11.32-11.313 45.257-45.254 16.969 16.965a7.992 7.992 0 0 0 11.309 0l22.632-22.62a8 8 0 0 0 .008-11.328zM123.48 372.18l-15.46-15.465 19.789-25.445 21.12 21.117zm60.153-7.727l-16.973-16.976-33.937-33.938-16.977-16.973 28.29-28.28 11.296 11.312a8 8 0 0 0 13.492-3.531 8.001 8.001 0 0 0-2.183-7.782l-11.309-11.312 28.285-28.29 11.313 11.313a8 8 0 0 0 11.312-11.312L194.93 217.37l28.28-28.285 11.321 11.32a8.005 8.005 0 0 0 11.317-.004c3.12-3.129 3.12-8.195-.004-11.316l-11.313-11.313 28.285-28.28 11.313 11.312c3.125 3.125 8.191 3.129 11.316.004s3.13-8.192.004-11.317l-11.32-11.312 33.945-33.942 11.313 11.309 45.254 45.258 11.312 11.312zm186.672-220.625l-33.934-33.933 45.246-45.258 33.945 33.945zm79.203-33.933L387.28 47.668l-16.957-16.961 11.317-11.32 79.203 79.203zm0 0" fill="#60c0c3"/></svg>