<svg xmlns="http://www.w3.org/2000/svg" viewBox="0 0 480 480" width="512" height="512"><path d="M309.6 72a73.906 73.906 0 0 0-29.296 6.016 102.898 102.898 0 0 1-80.656 0c-37.782-16.153-81.505 1.38-97.658 39.162A74.389 74.389 0 0 0 96 146.4a202.312 202.312 0 0 0 21.248 90.008l10.952 21.92 13.6 122.32c1.875 16.893 17.09 29.068 33.983 27.193 13.872-1.54 24.971-12.222 27.041-26.025l17.528-116.872c1.613-10.851 11.718-18.34 22.569-16.727a19.865 19.865 0 0 1 16.727 16.727l17.528 116.872c2.52 16.809 18.19 28.393 34.999 25.873 13.803-2.069 24.485-13.169 26.025-27.041l13.6-122.32 10.952-21.92A202.312 202.312 0 0 0 384 146.4c-.031-41.077-33.323-74.369-74.4-74.4zm38.84 157.232h-.024l-11.6 23.2a8.237 8.237 0 0 0-.8 2.696l-13.72 123.728c-.888 8.108-8.181 13.96-16.289 13.071a14.768 14.768 0 0 1-12.999-12.511L275.48 262.544c-2.951-19.595-21.228-33.088-40.823-30.137-15.57 2.345-27.793 14.567-30.137 30.137l-17.528 116.872c-1.198 8.068-8.709 13.637-16.777 12.439a14.768 14.768 0 0 1-12.511-12.999L143.952 255.12a8.261 8.261 0 0 0-.8-2.696l-11.6-23.2A186.243 186.243 0 0 1 112 146.4c.006-32.253 26.157-58.395 58.41-58.39a58.398 58.398 0 0 1 22.966 4.71 118.838 118.838 0 0 0 93.248 0c29.652-12.689 63.977 1.062 76.666 30.714A58.412 58.412 0 0 1 368 146.4a186.241 186.241 0 0 1-19.56 82.832z" fill="#60c0c3"/><path d="M155.56 105.344A61.774 61.774 0 0 0 128 156.84V168h16v-11.16a45.793 45.793 0 0 1 20.44-38.184l-8.88-13.312zM232 0h16v32h-16zm0 448h16v32h-16zM113.068 36.164l13.856-8 16 27.712-13.856 8zM337.07 424.117l13.857-8 16 27.712-13.856 8zM28.155 126.932l7.998-13.858 27.715 15.997-7.998 13.857zm387.98 223.978l7.998-13.857 27.715 15.997-7.998 13.857zM0 232h32v16H0zm448 0h32v16h-32zM28.154 353.112l27.716-15.997 7.998 13.857-27.715 15.997zm387.999-224.04l27.715-15.997 7.999 13.858-27.716 15.997zM113.09 443.84l15.998-27.716 13.857 7.999-15.997 27.715zM337.074 55.884l16-27.712 13.856 8-16 27.712zM79.866 38.666a8 8 0 0 0-6.554-6.554A30.945 30.945 0 0 1 47.888 6.68a8 8 0 0 0-15.776 0A30.945 30.945 0 0 1 6.688 32.112a8 8 0 0 0 0 15.776A30.945 30.945 0 0 1 32.112 73.32a8 8 0 0 0 15.776 0 30.945 30.945 0 0 1 25.424-25.432 8 8 0 0 0 6.554-9.222zM40 51.424A46.958 46.958 0 0 0 28.576 40 46.958 46.958 0 0 0 40 28.576 46.958 46.958 0 0 0 51.424 40 46.958 46.958 0 0 0 40 51.424z" fill="#60c0c3"/></svg>