<svg xmlns="http://www.w3.org/2000/svg" height="56" viewBox="0 0 480 480" width="56"><path d="M480 72V40c-.027-22.082-17.918-39.973-40-40H40C17.918.027.027 17.918 0 40v32c.027 22.082 17.918 39.973 40 40h336v257.602c-10.238-.985-20.855-1.602-32-1.602-65.93 0-136 19.625-136 56s70.07 56 136 56 136-19.625 136-56c0-15.871-14.246-29.992-40-40.223V112c22.082-.027 39.973-17.918 40-40zM16 72V40c0-13.254 10.746-24 24-24h400c13.254 0 24 10.746 24 24v32c0 13.254-10.746 24-24 24H40c-13.254 0-24-10.746-24-24zm448 352c0 18.879-51.32 40-120 40s-120-21.121-120-40 51.32-40 120-40c10.688.023 21.367.586 32 1.688V408c0 13.254 10.746 24 24 24h16c13.254 0 24-10.746 24-24v-6.895c15.152 6.965 24 15.192 24 22.895zm-40-16a8 8 0 0 1-8 8h-16a8 8 0 0 1-8-8V112h32zm0 0" fill="#FFF"/><path d="M320 400c-13.254 0-24 10.746-24 24s10.746 24 24 24 24-10.746 24-24-10.746-24-24-24zm0 32a8 8 0 1 1 0-16 8 8 0 0 1 0 16zM56 24H40a8 8 0 0 0 0 16h16a8 8 0 0 0 0-16zm72 0H80a8 8 0 0 0 0 16h48a8 8 0 0 0 0-16zm0 0" fill="#FFF"/></svg>