<svg xmlns="http://www.w3.org/2000/svg" viewBox="0 0 480.001 480.001" width="62" height="61"><path d="M456.401 291.8l-133.944-33.4a56.01 56.01 0 0 0-20.112-1.28l-123.728 14.56L51.561 159.528A30.08 30.08 0 0 0 31.641 152h-1.528C13.482 152 0 165.481 0 182.112a30.115 30.115 0 0 0 10.033 22.441l128.8 115.2a55.858 55.858 0 0 0 13.168 8.736v30.792c-.036 18.035 14.556 32.685 32.592 32.72a32.657 32.657 0 0 0 15.856-4.072l55.552 10.68V424h-184c-22.08.026-39.974 17.92-40 40a8 8 0 0 0 8 8h400a8 8 0 0 0 8-8v-33.68c.106-26.186-18.034-48.914-43.592-54.616L265.777 344.2h-.208l-33.368-6.68 4.8-9.536 74.4-7.832 129.696 34.4h.112c2.451.618 4.969.93 7.496.928 17.231.053 31.243-13.873 31.296-31.104v-2.28c.016-14.317-9.714-26.808-23.6-30.296zM256.001 456H49.369a24.047 24.047 0 0 1 22.632-16h184v16zm16-93.976l128.864 29.288a39.736 39.736 0 0 1 30.6 32.688H288.001v16h144v16h-160v-93.976zm-72.328 4.736c-4.133 8.258-14.177 11.602-22.435 7.469a16.72 16.72 0 0 1-9.237-14.949v-25.92c4.633.711 9.336.835 14 .368l36.088-3.8-18.416 36.832zm56.328-8.2v23.76l-42.184-8.12c.056-.096.12-.184.176-.288l10.792-21.6 31.216 6.248zm208-34.336c-.003 8.421-6.832 15.246-15.253 15.243-1.228 0-2.451-.149-3.643-.443l-131.056-34.76a7.988 7.988 0 0 0-2.88-.224l-130.832 13.776a39.925 39.925 0 0 1-30.864-9.968l-128.8-115.2c-5.819-5.185-6.333-14.105-1.148-19.924A14.11 14.11 0 0 1 30.113 168h1.528a14.125 14.125 0 0 1 9.336 3.528L170.705 286a7.935 7.935 0 0 0 6.232 1.944l127.28-14.968a39.793 39.793 0 0 1 14.4.912l133.92 33.424a15.24 15.24 0 0 1 11.464 14.784v2.128z" fill="#FFF"/><path fill="#FFF" d="M176.001 344h16v16h-16zM478.596 26.156A26.6 26.6 0 0 0 453.401 8h-173.4c-13.255 0-24 10.745-24 24v160h16V32a8 8 0 0 1 8-8h173.4c5.85-.014 10.603 4.717 10.617 10.567a10.592 10.592 0 0 1-7.265 10.081L384.409 68.8a24 24 0 0 0-16.408 22.728V104.8a39.88 39.88 0 0 0-19.728 10.472c-7.003-11.222-21.778-14.643-33-7.64A23.952 23.952 0 0 0 304.001 128v24c0 13.255 10.745 24 24 24v-16a8 8 0 0 1-8-8v-24a8 8 0 0 1 16 0v16c0 22.091 17.909 40 40 40s40-17.909 40-40v-16a8 8 0 0 1 16 0v24a8 8 0 0 1-8 8v16c13.255 0 24-10.745 24-24v-24c.022-13.228-10.684-23.97-23.912-23.992a23.953 23.953 0 0 0-20.36 11.271 39.885 39.885 0 0 0-19.728-10.48V91.52a8 8 0 0 1 5.472-7.584l72.344-24.112c13.93-4.663 21.443-19.737 16.779-33.668zM400.001 144c0 13.255-10.745 24-24 24s-24-10.745-24-24 10.745-24 24-24 24 10.746 24 24z"/><path fill="#FFF" d="M368.001 136h16v16h-16zm-80 72h-48v-24c0-13.255-10.745-24-24-24s-24 10.745-24 24v8h16v-8a8 8 0 0 1 16 0v24h-64a8 8 0 0 0-8 8v16h16v-8h112v24h16v-32a8 8 0 0 0-8-8z"/></svg>